<?xml version="1.0" encoding="UTF-8"?>
<svg id="Calque_2" data-name="Calque 2" xmlns="http://www.w3.org/2000/svg" xmlns:xlink="http://www.w3.org/1999/xlink"
     viewBox="0 -113.175 1450.24 1450.24">
  <defs>
    <style>
      .cls-1 {
        fill: url(#Dégradé_sans_nom_67);
      }

      .cls-2 {
        fill: url(#Dégradé_sans_nom_58);
      }

      .cls-3 {
        fill: url(#Dégradé_sans_nom_47);
      }

      .cls-4 {
        fill: url(#Dégradé_sans_nom_48);
      }
    </style>
    <linearGradient id="Dégradé_sans_nom_47" data-name="Dégradé sans nom 47" x1="48.47" y1="751.44" x2="749.33" y2="751.44" gradientUnits="userSpaceOnUse">
      <stop offset="0" stop-color="#ff5eff"/>
      <stop offset=".16" stop-color="#fb5fff"/>
      <stop offset=".29" stop-color="#f165ff"/>
      <stop offset=".41" stop-color="#e06fff"/>
      <stop offset=".52" stop-color="#c87eff"/>
      <stop offset=".63" stop-color="#a890ff"/>
      <stop offset=".74" stop-color="#82a6ff"/>
      <stop offset=".84" stop-color="#54c1ff"/>
      <stop offset=".94" stop-color="#21dfff"/>
      <stop offset="1" stop-color="#00f3ff"/>
    </linearGradient>
    <linearGradient id="Dégradé_sans_nom_48" data-name="Dégradé sans nom 48" x1="0" y1="934.67" x2="831.01" y2="934.67" gradientUnits="userSpaceOnUse">
      <stop offset="0" stop-color="#ff5eff"/>
      <stop offset=".16" stop-color="#fb5fff"/>
      <stop offset=".29" stop-color="#f165ff"/>
      <stop offset=".41" stop-color="#e06fff"/>
      <stop offset=".52" stop-color="#c87eff"/>
      <stop offset=".63" stop-color="#a890ff"/>
      <stop offset=".74" stop-color="#82a6ff"/>
      <stop offset=".84" stop-color="#54c1ff"/>
      <stop offset=".94" stop-color="#21dfff"/>
      <stop offset="1" stop-color="#00f3ff"/>
    </linearGradient>
    <linearGradient id="Dégradé_sans_nom_58" data-name="Dégradé sans nom 58" x1="1066.61" y1="15.32" x2="464.81" y2="1057.67" gradientUnits="userSpaceOnUse">
      <stop offset="0" stop-color="#ff5eff"/>
      <stop offset=".15" stop-color="#fb5fff"/>
      <stop offset=".28" stop-color="#f166ff"/>
      <stop offset=".4" stop-color="#df70ff"/>
      <stop offset=".52" stop-color="#c67fff"/>
      <stop offset=".63" stop-color="#a691ff"/>
      <stop offset=".74" stop-color="#7ea9ff"/>
      <stop offset=".85" stop-color="#4fc4ff"/>
      <stop offset=".95" stop-color="#1ae3ff"/>
      <stop offset="1" stop-color="#00f3ff"/>
    </linearGradient>
    <linearGradient id="Dégradé_sans_nom_67" data-name="Dégradé sans nom 67" x1="1156.77" y1="172.84" x2="1450.24" y2="172.84" gradientUnits="userSpaceOnUse">
      <stop offset="0" stop-color="#ff5eff"/>
      <stop offset=".06" stop-color="#e66cff"/>
      <stop offset=".21" stop-color="#aa8fff"/>
      <stop offset=".35" stop-color="#76adff"/>
      <stop offset=".5" stop-color="#4bc6ff"/>
      <stop offset=".64" stop-color="#2ad9ff"/>
      <stop offset=".77" stop-color="#13e7ff"/>
      <stop offset=".89" stop-color="#04f0ff"/>
      <stop offset="1" stop-color="#00f3ff"/>
    </linearGradient>
  </defs>
  <path class="cls-3" d="M54.27,1064.46c-11.56-3.54-2.89-23.66.8-34.38,2-5.27,4.41-11.12,7.11-17.49,45.46-105.2,120.36-280.49,166.1-385.67,7.81-17.34,12.81-27.68,24.47-43.49,40.22-52.21,101-98.97,163.58-124.61,60.2-25.02,125.99-26.45,188.43-10.09,45.2,11.73,84.96,31.31,117.78,61.44,22.97,20.54,38.21,42.49,15.87,71.29-3.81,5.04-8.13,9.88-12.53,14.61-25.03,26.48-55.44,57.93-83.9,86.35-40.31,40.18-82.12,80.61-125.73,116.91-55.21,46.43-114.29,81.03-174.63,118.9-59.64,36.9-122.02,74.63-183.99,106.63-19.86,10.22-42.38,21-59.59,28.23-20.38,8.03-32.51,13.49-43.7,11.38l-.06-.02Z"/>
  <path class="cls-4" d="M.87,1206.1c-7.38-18.38,33.88-41.46,56.8-49.36,80.46-30.05,170.64-66.69,248.16-109.42,32.79-18.07,63.72-37.49,93.63-59.14,58.71-43.45,108.37-86.83,164.03-131.28,46.34-37.9,90.53-75.43,135.6-116.97,27.9-25.43,60.37-57.75,86.12-79.22,13.61-10.63,25.52-20.12,33.25-12.53,17.58,35.67,20.54,128.77-16.6,229.74-16.62,44.86-39.84,90.09-65.29,129.86-29.88,47.11-65.96,89.1-105.87,127.68-26.5,25.32-57.83,55.3-89.04,71.48-31.21,16.65-67.18,16.82-102.65,16.76-110.81-.61-287.38,1.13-395.66-.64-16.57-1.39-36.46-4.29-42.45-16.92l-.02-.05Z"/>
  <path class="cls-2" d="M1088.64,809.86c1.51-228.67.72-489.62.3-720.44-1.42-28.74-.46-60.12-24.52-75.35-10.3-6.09-22.54-9.12-35.55-10.8C1009.92.82,989.45.17,969.61,0c-63.36-.13-134.32,1.64-199.34,11.21-174.64,24.31-327.18,142.89-422.51,287.1-85.42,129.17,10.19,102.17,108.36,95.77,42.51-2.93,85.78-2.94,127.25,6.48,104.21,23.89,224.22,98.95,277.79,193.06,50.76,90.28,42.45,189.54,12.56,285.47-23.19,76.42-64.68,147.97-113.91,211.35-19.23,26.02-47.64,57.73-52.73,84.39-6.43,45.8,66.56,44.88,102.9,39.69,84.79-12.09,148.71-51.98,193.45-126.17,50.4-84.14,81.47-182.11,85.2-278.4v-.1ZM889.71,231.56c-39.62.13-67.46-40.3-54.58-77.45,7.84-24.32,32.91-41.45,58.45-39.39,31.42,1.61,56.43,30.89,53.9,62.14-1.33,29.7-27.79,55.22-57.57,54.7h-.2Z"/>
  <path class="cls-1" d="M1180.73,7.81c-23.97,7.37-23.49,37.89-23.89,58.98-.15,54.09,0,115.29-.05,170.42,0,16.14-.04,30.85.07,45.92.58,16.98-1.36,43.7,15.34,51.11,6.73,3.13,13.57,4,21.36,4.72,12.44.96,25.27,1,38.9,1.04,28.92.02,60.55.02,89.89.01,26.54-.2,46.2.66,69.33-2.29,17.72-2.42,31.06-7.05,40.23-15.69,15.46-14.59,18.86-40.41,18.27-63.05-.71-22.35-6.5-44.97-13.42-66.1-11.96-37.52-34.53-69.28-61.75-97.18-29.98-31.23-65.27-56.4-106.28-72.49-27.04-10.15-61.8-22.53-87.86-15.43l-.13.04Z"/>
</svg>